<svg xmlns="http://www.w3.org/2000/svg" enable-background="new 0 0 32 32" viewBox="0 0 32 32"><circle cx="16" cy="5.5" r="2.2" fill="#e6e7e8"/><path fill="#939598" d="M16,6.6c-0.8,0-1.4,0.6-1.4,1.4v1.6c0,0.8,0.6,1.4,1.4,1.4s1.4-0.6,1.4-1.4V8C17.4,7.2,16.8,6.6,16,6.6z"/><circle cx="16" cy="18.8" r="10" fill="#1b75bc"/><circle cx="16" cy="18.8" r="7" fill="#d1d3d4"/><path fill="#f1f2f2" d="M19.5,14.9L14.8,17c-0.2,0.1-0.2,0.3-0.1,0.4l2.6,2.6c0.1,0.1,0.4,0.1,0.4-0.1l2.1-4.8C20,15,19.7,14.8,19.5,14.9z"/><path fill="#ed1c24" d="M14.2,17.5l-2.1,4.8c-0.1,0.2,0.1,0.4,0.3,0.3l4.8-2.1c0.2-0.1,0.2-0.3,0.1-0.4l-2.6-2.6C14.5,17.3,14.3,17.4,14.2,17.5z"/></svg>