<svg width="837" height="909" viewBox="0 0 837 909" fill="none" xmlns="http://www.w3.org/2000/svg">
<rect x="59" y="77" width="717" height="664" fill="white"/>
<path d="M0 418.282V836.564H131.376H262.682L340.626 872.782L418.5 909L496.374 872.782L574.318 836.564H705.624H837V418.282V-1.52588e-05H418.5H0V418.282ZM583.342 127.615C585.9 128.183 591.016 130.101 594.711 131.947C600.466 134.717 602.384 136.137 607.855 141.605C615.174 148.991 619.153 155.737 621.782 165.111C623.842 172.355 623.984 184.001 622.137 191.387C620.574 197.85 616.168 206.726 611.905 211.982C595.847 231.937 566.076 237.405 544.192 224.409C527.068 214.254 516.979 195.577 518.187 176.119C518.755 167.739 520.105 162.484 523.729 155.169C534.458 133.367 558.971 122.005 583.342 127.615ZM289.895 134.575C296.432 136.137 303.892 139.972 310.003 144.801C330.963 161.419 335.795 191.671 321.087 214.254C316.682 221.001 308.226 228.528 301.192 232.079C274.334 245.572 242.289 234.92 229.571 208.289C225.521 199.98 224.882 196.571 224.953 185.351C224.953 176.19 225.166 174.414 226.871 169.372C229.571 161.276 233.266 155.311 239.803 148.707C253.089 135.285 271.208 130.172 289.895 134.575ZM645.513 250.543C672.3 255.656 688.997 267.942 696.245 287.897C699.939 298.124 699.939 299.473 699.726 373.613L699.513 442.214L697.026 447.114C694.255 452.512 689.566 456.701 684.592 458.193C680.045 459.613 672.3 459.329 668.534 457.554C663.845 455.423 659.724 451.446 657.45 446.83L655.461 442.782L655.247 379.365L655.105 316.02H647.929H640.824L640.966 508.259C641.037 699.291 641.037 700.569 639.616 704.617C634.287 719.601 618.868 727.981 603.734 724.004C594.711 721.661 588.387 716.477 584.266 708.168L581.566 702.771L581.353 576.505L581.211 450.239H574.461H567.711V571.818C567.711 649.722 567.426 695.243 567 698.439C565.65 707.813 560.321 716.051 552.718 720.596C536.021 730.609 514.492 722.371 508.737 703.836C507.316 699.433 507.316 696.521 507.316 507.336V315.309H500.211H493.105V375.531C493.105 437.456 492.963 441.504 490.263 446.688C488.416 450.31 483.371 454.926 479.25 456.772C473.992 459.116 466.247 458.974 460.918 456.417C455.874 453.932 451.753 449.387 449.834 444.274C448.342 440.226 448.342 439.942 448.342 371.696C448.342 297.058 448.271 298.053 452.392 287.755C456.158 278.452 463.974 268.794 472.5 262.971C482.661 256.082 498.292 250.756 512.645 249.265C515.771 248.981 545.187 248.768 578.013 248.91C635.139 249.052 638.053 249.123 645.513 250.543ZM318.316 255.656C339.987 257.361 356.897 262.758 372.316 273.055C384.892 281.435 395.834 293.224 402.087 305.367C403.863 308.776 412.603 334.129 426.387 375.673C450.118 447.185 449.408 444.487 445.997 451.872C438.679 467.567 417.008 469.271 407.629 454.926C405.284 451.446 403.579 446.333 403.579 443.137C403.579 442.285 393.916 414.589 382.121 381.638L360.734 321.701H354.055C349.366 321.701 347.447 321.914 347.447 322.553C347.447 323.05 350.432 332.566 354.126 343.716C407.984 506.696 414.237 525.658 414.237 526.439C414.237 526.723 399.103 527.007 380.7 527.078L347.092 527.291L346.737 617.481L346.382 707.671L344.108 712.358C341.195 718.252 335.582 723.649 329.187 726.703C324.711 728.762 323.787 728.975 317.25 728.975C311.566 728.904 309.363 728.62 306.237 727.342C297.782 723.933 291.103 716.761 288.474 708.168C287.124 703.765 287.053 701.279 287.053 615.279V526.936H280.303H273.624L273.411 616.203L273.197 705.54L271.563 709.517C269.076 715.695 265.879 720.027 261.261 723.365C245.345 735.083 223.532 728.762 215.574 710.156C214.295 707.103 214.224 703.694 213.868 617.126L213.513 527.291L179.763 526.936L145.942 526.581L179.834 424.105C198.45 367.79 213.513 321.559 213.229 321.417C212.376 320.849 199.658 321.133 199.303 321.701C197.882 323.973 156.458 442.072 156.032 444.913C154.042 459.897 137.558 468.49 123.987 461.531C117.521 458.193 112.263 450.31 112.263 443.848C112.263 441.717 115.318 431.491 121.926 411.536C127.184 395.557 136.634 367.08 142.816 348.332C149.068 329.584 154.753 311.119 155.534 307.285C159.016 289.957 168.892 277.813 186.868 268.794C200.511 261.906 219.055 257.148 237.742 255.727C249.039 254.875 307.161 254.804 318.316 255.656Z" fill="black"/>
</svg>
