<?xml version="1.0" standalone="no"?>
<!DOCTYPE svg PUBLIC "-//W3C//DTD SVG 20010904//EN"
 "http://www.w3.org/TR/2001/REC-SVG-20010904/DTD/svg10.dtd">
<svg version="1.0" xmlns="http://www.w3.org/2000/svg"
 width="1178.000000pt" height="1280.000000pt" viewBox="0 0 1178.000000 1280.000000"
 preserveAspectRatio="xMidYMid meet">
<metadata>
Created by potrace 1.15, written by Peter Selinger 2001-2017
</metadata>
<g transform="translate(0.000000,1280.000000) scale(0.100000,-0.100000)"
fill="#000000" stroke="none">
<path d="M0 6910 l0 -5890 1849 0 1848 0 1097 -510 1096 -510 1096 510 1097
510 1848 0 1849 0 0 5890 0 5890 -5890 0 -5890 0 0 -5890z m8210 4093 c36 -8
108 -35 160 -61 81 -39 108 -59 185 -136 103 -104 159 -199 196 -331 29 -102
31 -266 5 -370 -22 -91 -84 -216 -144 -290 -226 -281 -645 -358 -953 -175
-241 143 -383 406 -366 680 8 118 27 192 78 295 151 307 496 467 839 388z
m-4130 -98 c92 -22 197 -76 283 -144 295 -234 363 -660 156 -978 -62 -95 -181
-201 -280 -251 -378 -190 -829 -40 -1008 335 -57 117 -66 165 -65 323 0 129 3
154 27 225 38 114 90 198 182 291 187 189 442 261 705 199z m5005 -1633 c377
-72 612 -245 714 -526 52 -144 52 -163 49 -1207 l-3 -966 -35 -69 c-39 -76
-105 -135 -175 -156 -64 -20 -173 -16 -226 9 -66 30 -124 86 -156 151 l-28 57
-3 893 -2 892 -101 0 -100 0 2 -2707 c1 -2690 1 -2708 -19 -2765 -75 -211
-292 -329 -505 -273 -127 33 -216 106 -274 223 l-38 76 -3 1778 -2 1778 -95 0
-95 0 0 -1712 c0 -1097 -4 -1738 -10 -1783 -19 -132 -94 -248 -201 -312 -235
-141 -538 -25 -619 236 -20 62 -20 103 -20 2767 l0 2704 -100 0 -100 0 0 -848
c0 -872 -2 -929 -40 -1002 -26 -51 -97 -116 -155 -142 -74 -33 -183 -31 -258
5 -71 35 -129 99 -156 171 -21 57 -21 61 -21 1022 0 1051 -1 1037 57 1182 53
131 163 267 283 349 143 97 363 172 565 193 44 4 458 7 920 5 804 -2 845 -3
950 -23z m-4605 -72 c305 -24 543 -100 760 -245 177 -118 331 -284 419 -455
25 -48 148 -405 342 -990 334 -1007 324 -969 276 -1073 -103 -221 -408 -245
-540 -43 -33 49 -57 121 -57 166 0 12 -136 402 -302 866 l-301 844 -94 0 c-66
0 -93 -3 -93 -12 0 -7 42 -141 94 -298 758 -2295 846 -2562 846 -2573 0 -4
-213 -8 -472 -9 l-473 -3 -5 -1270 -5 -1270 -32 -66 c-41 -83 -120 -159 -210
-202 -63 -29 -76 -32 -168 -32 -80 1 -111 5 -155 23 -119 48 -213 149 -250
270 -19 62 -20 97 -20 1308 l0 1244 -95 0 -94 0 -3 -1257 -3 -1258 -23 -56
c-35 -87 -80 -148 -145 -195 -224 -165 -531 -76 -643 186 -18 43 -19 91 -24
1310 l-5 1265 -475 5 -476 5 477 1443 c262 793 474 1444 470 1446 -12 8 -191
4 -196 -4 -20 -32 -603 -1695 -609 -1735 -28 -211 -260 -332 -451 -234 -91 47
-165 158 -165 249 0 30 43 174 136 455 74 225 207 626 294 890 88 264 168 524
179 578 49 244 188 415 441 542 192 97 453 164 716 184 159 12 977 13 1134 1z"/>
</g>
</svg>
