<svg width="752" height="980" viewBox="0 0 752 980" fill="none" xmlns="http://www.w3.org/2000/svg">
<path d="M336.5 1.50008C293.7 6.20008 251.1 18.7001 210.5 38.5001C185.2 50.9001 164.5 64.0001 140.1 83.1001C125.5 94.6001 95.5 124.8 82.7 140.9C37 198.4 10.4 263.1 1.79998 337.5C-0.100015 354.2 0.199985 398.3 2.29998 416C11.7 492.5 42.3 565.9 96.1 641.2C122.9 678.6 154.7 716.9 222.5 793.5C295 875.4 337.4 927.7 365.6 970C368.4 974.1 371.8 978.2 373.3 979C377.7 981.4 380.3 979 391.9 961.9C419.6 921 456 876.5 537 784.5C613 698.2 638.1 667.5 665.2 628C713.4 557.8 742 484.4 750.2 410.5C751.9 395.3 751.8 353.1 750.2 338.5C744.6 290.9 732.3 248.8 712.3 208.5C693.6 170.9 673.2 142.4 643.6 112.1C591.1 58.5001 526.5 23.2001 452.3 7.60008C420.4 0.900083 367.7 -1.89992 336.5 1.50008ZM389.6 167.3C392.1 169.5 392.3 170.2 393.2 184C394.3 201.4 393.7 576.5 392.6 579.7C391 584 380.1 585.2 377 581.4C376.1 580.4 375.4 571.3 374.8 549.7C373.6 508.5 374.4 178.9 375.8 173C377.6 165.3 384.1 162.6 389.6 167.3ZM260.5 172.7C266.6 174.9 274.7 182.6 277.7 189C280.6 195.3 282.3 204.5 281.7 210.2C280.9 216.5 275.8 226.1 270.7 230.6C258.8 241.4 240.7 242.9 227.7 234.3C217.5 227.5 212.8 218.2 212.8 204.4C212.8 194.6 214.8 189.4 221.1 182.5C231.7 171 246 167.4 260.5 172.7ZM538.4 173.9C553.9 181.5 560.6 196.1 556.6 213.3C553.7 225.8 549 231.8 538 236.9C530.6 240.4 517.1 240.5 509.7 237.2C503.1 234.2 495.3 226.6 491.8 219.6C489 214 488.8 213.1 489.2 204.6C489.7 193.8 492.5 186.9 499.2 180.1C506.6 172.7 514 169.8 524.7 170.4C530.4 170.6 533.4 171.4 538.4 173.9ZM257.6 248C264.7 248.6 273.4 249.7 276.9 250.6C290 253.6 302.3 262.6 307.5 273C310.9 279.7 329.1 334.4 336.6 360.3C343.1 382.8 343.3 385.9 338.7 389.4C332.3 394.3 321.3 395.3 317.8 391.2C315.7 388.8 309.7 373.1 298.5 340C293.1 324.3 288.4 310.8 287.8 310C286.7 308.1 285.4 302.7 299.9 359.5C313.3 412.2 319 436.3 319 441C319 443.8 318.5 444.4 314.3 446.2C310.5 447.9 306.8 448.4 296.8 448.8L284 449.3V503.9C283.9 533.9 283.5 561.8 283.1 565.8C282.1 574.4 280.1 577.2 273.5 579C264.5 581.5 255 578 252.9 571.3C252.1 568.7 251.6 549.4 251.1 509.5C250.8 477.6 250.1 450.9 249.7 450.2C248.5 448.4 245.3 448.7 244.4 450.7C244 451.7 243.4 478.4 243.1 510C242.5 565.5 242.4 567.6 240.4 571.5C238 576.2 231.5 580 226 580C224 580 220.4 579 218 577.7C210.7 574.1 210.8 575.6 210.2 508.3L209.7 449.2L196.6 448.8C181.7 448.4 178.3 447.2 175.7 441.7C174.1 438.5 174.2 437.8 180.1 415.9C188.9 383.1 207 311.3 207 309.3C206.9 307.7 206.8 307.7 206 309C205.6 309.9 200 325.9 193.6 344.7C180.8 382.4 178.2 388.8 173.7 392.6C170 395.7 166.5 395.4 158 391.2C150 387.3 149.9 386.2 154.8 368.9C159.4 352.8 175.1 304.2 182.8 282C187.5 268.6 188.2 267.2 192.6 263.2C200.9 255.6 215.3 249.5 228.5 248C237.7 246.9 243.6 246.9 257.6 248ZM576 249.8C583.5 252.3 590.1 256.2 596.5 262.1L601 266.3L600.9 321.4C600.9 382.3 600.1 403.9 598 406.5C595.6 409.4 590.8 411.2 585.3 411.4C580.3 411.5 579.9 411.3 575 406.5L570 401.6V356.5C570 331.8 569.7 309 569.3 306L568.6 300.5L567.7 304C567.3 305.9 566.6 367 566.3 439.7L565.8 571.9L560.5 575.5C550.6 582.4 539.4 581.4 530.4 572.8L525 567.7V499C525 427.7 524.5 406.7 522.7 411.1C522.2 412.5 521.6 445.5 521.3 491.5L520.8 569.5L517.6 572.9C513.4 577.4 507.6 580 501.5 580C494.1 580 489.8 578.4 484.6 573.9L480 569.8V448.6C480 326.4 479.5 297.4 477.7 302.1C477.2 303.4 476.5 326.6 476.2 354.3L475.7 404.1L471.2 407.5C463.8 413.2 459.2 413.3 450.8 407.7L446 404.5V342.5C446 279.5 446.5 269.2 449.8 263.6C452.2 259.5 461.1 253.5 468.5 251C478.6 247.7 486.9 247.2 529 247.4C567.4 247.6 569.8 247.7 576 249.8Z" fill="#054AFB"/>
</svg>
