<?xml version="1.0" standalone="no"?>
<!DOCTYPE svg PUBLIC "-//W3C//DTD SVG 20010904//EN"
 "http://www.w3.org/TR/2001/REC-SVG-20010904/DTD/svg10.dtd">
<svg version="1.0" xmlns="http://www.w3.org/2000/svg"
 width="752.000000pt" height="980.000000pt" viewBox="0 0 752.000000 980.000000"
 preserveAspectRatio="xMidYMid meet">

<g transform="translate(0.000000,980.000000) scale(0.100000,-0.100000)"
fill="#000000" stroke="none">
<path d="M3365 9785 c-428 -47 -854 -172 -1260 -370 -253 -124 -460 -255 -704
-446 -146 -115 -446 -417 -574 -578 -457 -575 -723 -1222 -809 -1966 -19 -167
-16 -608 5 -785 94 -765 400 -1499 938 -2252 268 -374 586 -757 1264 -1523
725 -819 1149 -1342 1431 -1765 28 -41 62 -82 77 -90 44 -24 70 0 186 171 277
409 641 854 1451 1774 760 863 1011 1170 1282 1565 482 702 768 1436 850 2175
17 152 16 574 0 720 -56 476 -179 897 -379 1300 -187 376 -391 661 -687 964
-525 536 -1171 889 -1913 1045 -319 67 -846 95 -1158 61z m531 -1658 c25 -22
27 -29 36 -167 11 -174 5 -3925 -6 -3957 -16 -43 -125 -55 -156 -17 -9 10 -16
101 -22 317 -12 412 -4 3708 10 3767 18 77 83 104 138 57z m-1291 -54 c61 -22
142 -99 172 -163 29 -63 46 -155 40 -212 -8 -63 -59 -159 -110 -204 -119 -108
-300 -123 -430 -37 -102 68 -149 161 -149 299 0 98 20 150 83 219 106 115 249
151 394 98z m2779 -12 c155 -76 222 -222 182 -394 -29 -125 -76 -185 -186
-236 -74 -35 -209 -36 -283 -3 -66 30 -144 106 -179 176 -28 56 -30 65 -26
150 5 108 33 177 100 245 74 74 148 103 255 97 57 -2 87 -10 137 -35z m-2808
-741 c71 -6 158 -17 193 -26 131 -30 254 -120 306 -224 34 -67 216 -614 291
-873 65 -225 67 -256 21 -291 -64 -49 -174 -59 -209 -18 -21 24 -81 181 -193
512 -54 157 -101 292 -107 300 -11 19 -24 73 121 -495 134 -527 191 -768 191
-815 0 -28 -5 -34 -47 -52 -38 -17 -75 -22 -175 -26 l-128 -5 0 -546 c-1 -300
-5 -579 -9 -619 -10 -86 -30 -114 -96 -132 -90 -25 -185 10 -206 77 -8 26 -13
219 -18 618 -3 319 -10 586 -14 593 -12 18 -44 15 -53 -5 -4 -10 -10 -277 -13
-593 -6 -555 -7 -576 -27 -615 -24 -47 -89 -85 -144 -85 -20 0 -56 10 -80 23
-73 36 -72 21 -78 694 l-5 591 -131 4 c-149 4 -183 16 -209 71 -16 32 -15 39
44 258 88 328 269 1046 269 1066 -1 16 -2 16 -10 3 -4 -9 -60 -169 -124 -357
-128 -377 -154 -441 -199 -479 -37 -31 -72 -28 -157 14 -80 39 -81 50 -32 223
46 161 203 647 280 869 47 134 54 148 98 188 83 76 227 137 359 152 92 11 151
11 291 0z m3184 -18 c75 -25 141 -64 205 -123 l45 -42 -1 -551 c0 -609 -8
-825 -29 -851 -24 -29 -72 -47 -127 -49 -50 -1 -54 1 -103 49 l-50 49 0 451
c0 247 -3 475 -7 505 l-7 55 -9 -35 c-4 -19 -11 -630 -14 -1357 l-5 -1322 -53
-36 c-99 -69 -211 -59 -301 27 l-54 51 0 687 c0 713 -5 923 -23 879 -5 -14
-11 -344 -14 -804 l-5 -780 -32 -34 c-42 -45 -100 -71 -161 -71 -74 0 -117 16
-169 61 l-46 41 0 1212 c0 1222 -5 1512 -23 1465 -5 -13 -12 -245 -15 -522
l-5 -498 -45 -34 c-74 -57 -120 -58 -204 -2 l-48 32 0 620 c0 630 5 733 38
789 24 41 113 101 187 126 101 33 184 38 605 36 384 -2 408 -3 470 -24z"/>
</g>
</svg>
